<svg width="16" height="16" viewBox="0 0 16 16" fill="none" xmlns="http://www.w3.org/2000/svg">
<path d="M7.31429 14.6286C8.97444 14.6286 10.5143 14.0752 11.7414 13.1128L14.6286 16L16 14.6286L13.1128 11.7414C14.0511 10.5143 14.6286 8.97444 14.6286 7.31429C14.6286 3.29624 11.3564 0 7.31429 0C3.29624 0 0 3.27218 0 7.31429C0 11.3564 3.27218 14.6286 7.31429 14.6286ZM7.31429 1.94887C10.2737 1.94887 12.7038 4.35489 12.7038 7.33835C12.7038 10.3218 10.2977 12.7278 7.31429 12.7278C4.35489 12.7278 1.92481 10.3218 1.92481 7.33835C1.92481 4.35489 4.35489 1.94887 7.31429 1.94887Z" fill="#1D1D1B"/>
</svg>
